<?xml version="1.0" standalone="no"?>
<!DOCTYPE svg PUBLIC "-//W3C//DTD SVG 20010904//EN"
 "http://www.w3.org/TR/2001/REC-SVG-20010904/DTD/svg10.dtd">
<svg version="1.0" xmlns="http://www.w3.org/2000/svg"
 width="512.000000pt" height="512.000000pt" viewBox="0 0 512.000000 512.000000"
 preserveAspectRatio="xMidYMid meet">

<g transform="translate(0.000000,512.000000) scale(0.100000,-0.100000)"
fill="#000000" stroke="none">
<path d="M1052 4955 c-228 -50 -407 -241 -442 -472 -7 -46 -10 -689 -8 -1968
l3 -1900 27 -74 c63 -173 197 -306 367 -364 l66 -22 1462 -3 c1625 -3 1542 -6
1681 64 130 66 236 192 283 336 l24 73 0 1935 0 1935 -24 73 c-64 196 -229
346 -426 387 -101 21 -2916 21 -3013 0z m1637 -756 c159 -38 324 -172 395
-322 93 -193 79 -405 -39 -596 -25 -41 -44 -75 -43 -76 2 -1 26 -14 53 -30 67
-38 138 -91 208 -155 166 -152 317 -447 317 -620 0 -67 -17 -95 -74 -121 -39
-18 -84 -19 -969 -19 -1033 0 -974 -4 -1023 69 -24 37 -26 47 -21 104 19 193
145 430 308 581 85 79 216 167 280 188 7 2 -2 24 -24 55 -78 107 -112 221
-111 368 1 166 62 303 185 419 158 150 353 204 558 155z m1157 -2415 c49 -36
65 -66 66 -121 0 -61 -22 -107 -65 -133 -31 -19 -60 -20 -1287 -20 -1227 0
-1256 1 -1287 20 -49 30 -67 73 -64 157 1 41 51 99 95 112 18 6 541 9 1273 8
1237 -2 1242 -2 1269 -23z m1 -604 c43 -26 65 -72 65 -133 -1 -55 -17 -85 -66
-121 -27 -21 -30 -21 -1286 -21 -1256 0 -1259 0 -1286 21 -49 36 -65 66 -66
121 0 61 22 107 65 133 31 19 60 20 1287 20 1227 0 1256 -1 1287 -20z"/>
<path d="M2479 3909 c-66 -10 -120 -41 -172 -99 -133 -148 -90 -373 90 -462
296 -146 575 222 353 465 -73 81 -164 113 -271 96z"/>
<path d="M2374 2995 c-144 -31 -264 -97 -374 -205 -63 -62 -160 -197 -160
-223 0 -4 311 -7 690 -7 380 0 690 3 690 7 0 4 -18 38 -41 75 -79 134 -220
257 -356 313 -130 52 -316 69 -449 40z"/>
</g>
</svg>
